<mxfile host="app.diagrams.net" agent="Mozilla/5.0 (Windows NT 10.0; Win64; x64) AppleWebKit/537.36 (KHTML, like Gecko) Chrome/131.0.0.0 Safari/537.36" version="25.0.3">
  <diagram id="C5RBs43oDa-KdzZeNtuy" name="Page-1">
    <mxGraphModel dx="1290" dy="530" grid="1" gridSize="10" guides="1" tooltips="1" connect="1" arrows="1" fold="1" page="1" pageScale="1" pageWidth="827" pageHeight="1169" math="0" shadow="0">
      <root>
        <mxCell id="WIyWlLk6GJQsqaUBKTNV-0" />
        <mxCell id="WIyWlLk6GJQsqaUBKTNV-1" parent="WIyWlLk6GJQsqaUBKTNV-0" />
        <mxCell id="_rO1YZVde6TJZBu-yzW6-2" style="edgeStyle=orthogonalEdgeStyle;rounded=0;orthogonalLoop=1;jettySize=auto;html=1;exitX=0.5;exitY=1;exitDx=0;exitDy=0;exitPerimeter=0;" edge="1" parent="WIyWlLk6GJQsqaUBKTNV-1" source="_rO1YZVde6TJZBu-yzW6-0" target="_rO1YZVde6TJZBu-yzW6-1">
          <mxGeometry relative="1" as="geometry" />
        </mxCell>
        <mxCell id="_rO1YZVde6TJZBu-yzW6-0" value="START" style="strokeWidth=2;html=1;shape=mxgraph.flowchart.start_1;whiteSpace=wrap;" vertex="1" parent="WIyWlLk6GJQsqaUBKTNV-1">
          <mxGeometry x="364" y="60" width="100" height="60" as="geometry" />
        </mxCell>
        <mxCell id="_rO1YZVde6TJZBu-yzW6-8" style="edgeStyle=orthogonalEdgeStyle;rounded=0;orthogonalLoop=1;jettySize=auto;html=1;exitX=0.5;exitY=1;exitDx=0;exitDy=0;entryX=0.5;entryY=0;entryDx=0;entryDy=0;" edge="1" parent="WIyWlLk6GJQsqaUBKTNV-1" source="_rO1YZVde6TJZBu-yzW6-1" target="_rO1YZVde6TJZBu-yzW6-3">
          <mxGeometry relative="1" as="geometry" />
        </mxCell>
        <mxCell id="_rO1YZVde6TJZBu-yzW6-1" value="READ N" style="shape=parallelogram;html=1;strokeWidth=2;perimeter=parallelogramPerimeter;whiteSpace=wrap;rounded=1;arcSize=12;size=0.23;" vertex="1" parent="WIyWlLk6GJQsqaUBKTNV-1">
          <mxGeometry x="306" y="180" width="216" height="60" as="geometry" />
        </mxCell>
        <mxCell id="_rO1YZVde6TJZBu-yzW6-9" style="edgeStyle=orthogonalEdgeStyle;rounded=0;orthogonalLoop=1;jettySize=auto;html=1;exitX=0.5;exitY=1;exitDx=0;exitDy=0;entryX=0.5;entryY=0;entryDx=0;entryDy=0;" edge="1" parent="WIyWlLk6GJQsqaUBKTNV-1" source="_rO1YZVde6TJZBu-yzW6-3" target="_rO1YZVde6TJZBu-yzW6-6">
          <mxGeometry relative="1" as="geometry" />
        </mxCell>
        <mxCell id="_rO1YZVde6TJZBu-yzW6-3" value="RES = N * N" style="rounded=1;whiteSpace=wrap;html=1;absoluteArcSize=1;arcSize=14;strokeWidth=2;" vertex="1" parent="WIyWlLk6GJQsqaUBKTNV-1">
          <mxGeometry x="304" y="280" width="220" height="60" as="geometry" />
        </mxCell>
        <mxCell id="_rO1YZVde6TJZBu-yzW6-10" style="edgeStyle=orthogonalEdgeStyle;rounded=0;orthogonalLoop=1;jettySize=auto;html=1;exitX=0.5;exitY=1;exitDx=0;exitDy=0;entryX=0.5;entryY=0;entryDx=0;entryDy=0;" edge="1" parent="WIyWlLk6GJQsqaUBKTNV-1" source="_rO1YZVde6TJZBu-yzW6-6" target="_rO1YZVde6TJZBu-yzW6-7">
          <mxGeometry relative="1" as="geometry" />
        </mxCell>
        <mxCell id="_rO1YZVde6TJZBu-yzW6-6" value="RES 2 = RES * 3" style="rounded=1;whiteSpace=wrap;html=1;absoluteArcSize=1;arcSize=14;strokeWidth=2;" vertex="1" parent="WIyWlLk6GJQsqaUBKTNV-1">
          <mxGeometry x="304" y="380" width="220" height="60" as="geometry" />
        </mxCell>
        <mxCell id="_rO1YZVde6TJZBu-yzW6-12" style="edgeStyle=orthogonalEdgeStyle;rounded=0;orthogonalLoop=1;jettySize=auto;html=1;exitX=0.5;exitY=1;exitDx=0;exitDy=0;" edge="1" parent="WIyWlLk6GJQsqaUBKTNV-1" source="_rO1YZVde6TJZBu-yzW6-7" target="_rO1YZVde6TJZBu-yzW6-11">
          <mxGeometry relative="1" as="geometry" />
        </mxCell>
        <mxCell id="_rO1YZVde6TJZBu-yzW6-7" value="RES 3 = RES 2 * 3" style="rounded=1;whiteSpace=wrap;html=1;absoluteArcSize=1;arcSize=14;strokeWidth=2;" vertex="1" parent="WIyWlLk6GJQsqaUBKTNV-1">
          <mxGeometry x="306" y="470" width="220" height="60" as="geometry" />
        </mxCell>
        <mxCell id="_rO1YZVde6TJZBu-yzW6-14" style="edgeStyle=orthogonalEdgeStyle;rounded=0;orthogonalLoop=1;jettySize=auto;html=1;exitX=0.5;exitY=1;exitDx=0;exitDy=0;" edge="1" parent="WIyWlLk6GJQsqaUBKTNV-1" source="_rO1YZVde6TJZBu-yzW6-11" target="_rO1YZVde6TJZBu-yzW6-13">
          <mxGeometry relative="1" as="geometry" />
        </mxCell>
        <mxCell id="_rO1YZVde6TJZBu-yzW6-11" value="PRINT RES , RES 2 , RES3" style="shape=parallelogram;html=1;strokeWidth=2;perimeter=parallelogramPerimeter;whiteSpace=wrap;rounded=1;arcSize=12;size=0.23;" vertex="1" parent="WIyWlLk6GJQsqaUBKTNV-1">
          <mxGeometry x="291" y="600" width="250" height="60" as="geometry" />
        </mxCell>
        <mxCell id="_rO1YZVde6TJZBu-yzW6-13" value="END" style="strokeWidth=2;html=1;shape=mxgraph.flowchart.terminator;whiteSpace=wrap;" vertex="1" parent="WIyWlLk6GJQsqaUBKTNV-1">
          <mxGeometry x="366" y="700" width="100" height="60" as="geometry" />
        </mxCell>
      </root>
    </mxGraphModel>
  </diagram>
</mxfile>
